<?xml version="1.0" encoding="UTF-8"?>
<svg width="116.79mm" height="19.704mm" version="1.1" viewBox="0 0 116.79 19.704" xmlns="http://www.w3.org/2000/svg" xmlns:cc="http://creativecommons.org/ns#" xmlns:dc="http://purl.org/dc/elements/1.1/" xmlns:rdf="http://www.w3.org/1999/02/22-rdf-syntax-ns#">
<g transform="translate(-1.8208 -2.8162)">
<g transform="translate(-6.8036 -24.946)" style="shape-inside:url(#rect20);white-space:pre" aria-label="meche.ca">
<path d="m16.241 47.013v-0.8636l-0.8128-0.4572c-0.6096-0.3556-0.7366-0.635-0.7366-1.7272v-5.7404c0.6096-0.6604 1.3208-1.0922 2.0574-1.0922 1.3716 0 2.0066 1.0414 2.0066 2.8956v3.937c0 1.0922-0.127 1.3716-0.7366 1.7272l-0.8128 0.4572v0.8636h7.0104v-0.8636l-0.8128-0.4572c-0.508-0.2794-0.6096-0.5842-0.6096-1.7272v-4.7244c0-0.3048-0.0254-0.6096-0.0508-0.8636 0.5588-0.762 1.2192-1.2446 1.9558-1.2446 1.3716 0 2.032 0.9144 2.032 2.8956v3.937c0 1.0922-0.127 1.3716-0.762 1.7272l-0.8128 0.4572v0.8636h7.4168v-0.8636l-0.8636-0.4826c-0.7874-0.4318-0.9398-0.7366-0.9398-1.7018v-4.7244c0-3.3274-1.5748-5.2832-4.2164-5.2832-2.0066 0-3.5306 1.651-4.191 2.54-0.6096-1.5494-1.8288-2.54-3.7846-2.54-2.032 0-3.3528 1.651-4.2164 2.8194v-2.3368l-0.7874-0.4826-4.6482 2.0066v0.8636l0.8128 0.3302c0.7112 0.2794 0.9144 0.635 0.9144 1.9304v4.8768c0 0.9398-0.2032 1.27-0.9398 1.7018l-0.889 0.4826v0.8636z"/>
<path d="m40.264 47.267c2.3368 0 4.1656-0.7112 5.715-2.2606l-0.889-1.0922c-1.0922 0.6604-1.905 0.9398-2.8702 0.9398-2.5654 0-4.0386-1.4986-4.0386-4.318v-0.127h8.001v-0.6096c0-3.6322-2.2606-5.842-5.8674-5.842-3.7338 0-6.5278 2.8194-6.5278 6.7564 0 4.1402 2.4384 6.5532 6.477 6.5532zm-2.032-8.4328c0.2032-2.3368 0.8636-3.2766 2.1336-3.2766 1.1176 0 1.778 1.143 1.778 3.175z"/>
<path d="m54.427 47.267c2.2606 0 4.0132-0.7366 5.3594-2.2606l-0.8636-1.1176c-0.762 0.5588-1.8288 0.9144-2.8702 0.9144-2.3114 0-3.683-1.6764-3.683-4.5212 0-2.7686 1.1938-4.7244 2.6162-4.7244 0.6858 0 1.1176 0.2794 1.8796 1.4986 0.4064 0.6604 0.762 1.397 1.1684 2.4384h1.0922l0.4572-4.1148c-1.4224-0.9144-2.921-1.4224-4.8006-1.4224-3.8862 0-6.8072 2.8194-6.8072 6.9088 0 4.064 2.3876 6.4008 6.4516 6.4008z"/>
<path d="m68.359 47.013v-0.8636l-0.889-0.4826c-0.6604-0.381-0.7874-0.6604-0.7874-1.7018v-5.842c0.5588-0.5842 1.397-0.9906 2.159-0.9906 1.4732 0 2.2606 0.9652 2.2606 2.794v4.0386c0 1.0414-0.127 1.3208-0.7874 1.7018l-0.889 0.4826v0.8636h7.5438v-0.8636l-0.889-0.4826c-0.762-0.4318-0.9398-0.762-0.9398-1.7018v-4.826c0-3.2512-1.5748-5.1816-4.2164-5.1816-1.3716 0-2.8956 0.8128-4.2418 2.286v-7.7724l-0.7874-0.508-4.9784 2.0066v0.8636l0.8128 0.3556c0.7112 0.3048 0.9144 0.6604 0.9144 1.905v10.871c0 0.9398-0.1778 1.27-0.9398 1.7018l-0.889 0.4826v0.8636z"/>
<path d="m84.665 47.267c2.3368 0 4.1656-0.7112 5.715-2.2606l-0.889-1.0922c-1.0922 0.6604-1.905 0.9398-2.8702 0.9398-2.5654 0-4.0386-1.4986-4.0386-4.318v-0.127h8.001v-0.6096c0-3.6322-2.2606-5.842-5.8674-5.842-3.7338 0-6.5278 2.8194-6.5278 6.7564 0 4.1402 2.4384 6.5532 6.477 6.5532zm-2.032-8.4328c0.2032-2.3368 0.8636-3.2766 2.1336-3.2766 1.1176 0 1.778 1.143 1.778 3.175z"/>
<path d="m94.28 47.267c1.397 0 2.4384-1.0668 2.4384-2.4384s-1.0414-2.4384-2.4384-2.4384c-1.3716 0-2.4384 1.0668-2.4384 2.4384s1.0668 2.4384 2.4384 2.4384z"/>
<path d="m104.73 47.267c2.2606 0 4.0132-0.7366 5.3594-2.2606l-0.8636-1.1176c-0.762 0.5588-1.8288 0.9144-2.8702 0.9144-2.3114 0-3.683-1.6764-3.683-4.5212 0-2.7686 1.1938-4.7244 2.6162-4.7244 0.6858 0 1.1176 0.2794 1.8796 1.4986 0.4064 0.6604 0.762 1.397 1.1684 2.4384h1.0922l0.4572-4.1148c-1.4224-0.9144-2.921-1.4224-4.8006-1.4224-3.8862 0-6.8072 2.8194-6.8072 6.9088 0 4.064 2.3876 6.4008 6.4516 6.4008z"/>
<path d="m115.61 47.267c1.3208 0 2.7178-0.7874 3.556-2.0066l0.762 2.0066h0.6858l4.5974-1.7272-0.1778-0.9398-0.8128-0.1778c-0.9906-0.2286-1.1938-0.4064-1.1938-1.2192v-4.2672c0-3.4798-1.6764-4.9784-5.334-4.9784-2.032 0-3.6576 0.4572-5.6388 1.8034l0.9652 2.4892h1.4478c0.4318-1.2954 0.762-1.778 1.0668-2.0828 0.381-0.381 0.9652-0.508 1.5748-0.508 1.27 0 1.8796 0.9652 1.8796 3.1496v0.508c-1.6002 0.1016-3.175 0.381-4.5466 0.9144-1.7526 0.6604-2.8448 1.905-2.8448 3.5306 0 2.1336 1.5748 3.5052 4.0132 3.5052zm1.651-2.6924c-0.889 0-1.5494-0.6858-1.5494-1.6002 0-0.9652 0.6096-1.6002 1.651-1.9304 0.4572-0.1524 1.016-0.2794 1.6256-0.3302v2.9718c-0.4318 0.5842-1.0668 0.889-1.7272 0.889z"/>
</g>
</g>
</svg>
